<mxfile host="app.diagrams.net" modified="2023-03-31T00:33:00.158Z" agent="Mozilla/5.0 (Macintosh; Intel Mac OS X 10_15_7) AppleWebKit/537.36 (KHTML, like Gecko) Chrome/111.0.0.0 Safari/537.36" etag="3rxYm0wIWGow0CWw1mxa" version="21.1.1" type="device">
  <diagram name="Page-1" id="9WEcdIWBfCLK3dZXEWxH">
    <mxGraphModel dx="902" dy="771" grid="1" gridSize="10" guides="1" tooltips="1" connect="1" arrows="1" fold="1" page="1" pageScale="1" pageWidth="850" pageHeight="1100" math="0" shadow="0">
      <root>
        <mxCell id="0" />
        <mxCell id="1" parent="0" />
        <mxCell id="E57NaFPpTqs6es2otRiG-2" value="user" style="swimlane;whiteSpace=wrap;html=1;fillColor=#fff2cc;strokeColor=#d6b656;" parent="1" vertex="1">
          <mxGeometry x="20" y="200" width="200" height="200" as="geometry" />
        </mxCell>
        <mxCell id="E57NaFPpTqs6es2otRiG-3" value="&lt;font style=&quot;font-size: 14px;&quot;&gt;- id (long) (PK)&lt;br&gt;&lt;/font&gt;&lt;div style=&quot;font-size: 14px;&quot;&gt;&lt;span style=&quot;background-color: initial;&quot;&gt;&lt;font style=&quot;font-size: 14px;&quot;&gt;- username - (varchar)&lt;/font&gt;&lt;/span&gt;&lt;/div&gt;&lt;div style=&quot;font-size: 14px;&quot;&gt;&lt;font style=&quot;font-size: 14px;&quot;&gt;&lt;span style=&quot;background-color: initial;&quot;&gt;- name (&lt;/span&gt;varchar&lt;span style=&quot;background-color: initial;&quot;&gt;)&lt;/span&gt;&lt;/font&gt;&lt;/div&gt;&lt;div style=&quot;font-size: 14px;&quot;&gt;- password (varchar)&lt;/div&gt;&lt;div style=&quot;font-size: 14px;&quot;&gt;- email (varchar)&lt;/div&gt;&lt;div style=&quot;font-size: 14px;&quot;&gt;- bio (varchar)&lt;/div&gt;" style="text;html=1;align=left;verticalAlign=middle;resizable=0;points=[];autosize=1;strokeColor=none;fillColor=none;" parent="E57NaFPpTqs6es2otRiG-2" vertex="1">
          <mxGeometry x="10" y="35" width="160" height="110" as="geometry" />
        </mxCell>
        <mxCell id="E57NaFPpTqs6es2otRiG-6" value="Blog" style="swimlane;whiteSpace=wrap;html=1;fillColor=#fff2cc;strokeColor=#d6b656;" parent="1" vertex="1">
          <mxGeometry x="320" y="200" width="200" height="200" as="geometry" />
        </mxCell>
        <mxCell id="E57NaFPpTqs6es2otRiG-7" value="&lt;font style=&quot;font-size: 14px;&quot;&gt;- id (long) (PK)&lt;br&gt;&lt;/font&gt;&lt;div style=&quot;font-size: 14px;&quot;&gt;&lt;span style=&quot;background-color: initial;&quot;&gt;&lt;font style=&quot;font-size: 14px;&quot;&gt;- title - (varchar)&lt;/font&gt;&lt;/span&gt;&lt;/div&gt;&lt;div style=&quot;font-size: 14px;&quot;&gt;&lt;span style=&quot;background-color: initial;&quot;&gt;&lt;font style=&quot;font-size: 14px;&quot;&gt;- body - (varchar)&lt;/font&gt;&lt;/span&gt;&lt;/div&gt;&lt;div style=&quot;font-size: 14px;&quot;&gt;&lt;font style=&quot;font-size: 14px;&quot;&gt;- like - (long)&lt;/font&gt;&lt;/div&gt;&lt;div style=&quot;font-size: 14px;&quot;&gt;&lt;font style=&quot;font-size: 14px;&quot;&gt;&lt;span style=&quot;background-color: initial;&quot;&gt;- slug (&lt;/span&gt;varchar&lt;span style=&quot;background-color: initial;&quot;&gt;)&lt;/span&gt;&lt;/font&gt;&lt;/div&gt;&lt;div style=&quot;font-size: 14px;&quot;&gt;&lt;font style=&quot;font-size: 14px;&quot;&gt;- createdAt (Date)&lt;/font&gt;&lt;/div&gt;&lt;div style=&quot;font-size: 14px;&quot;&gt;&lt;font style=&quot;font-size: 14px;&quot;&gt;- modifiedAt (Date)&lt;/font&gt;&lt;/div&gt;&lt;div style=&quot;font-size: 14px;&quot;&gt;&lt;font style=&quot;font-size: 14px;&quot;&gt;- createdBy (UserId) (FK)&lt;/font&gt;&lt;/div&gt;&lt;div style=&quot;font-size: 14px;&quot;&gt;&lt;font style=&quot;font-size: 14px;&quot;&gt;- modifiedBy (UserId) (FK)&lt;/font&gt;&lt;/div&gt;&lt;span style=&quot;background-color: initial; font-size: 14px;&quot;&gt;&lt;br&gt;&lt;/span&gt;" style="text;html=1;align=left;verticalAlign=middle;resizable=0;points=[];autosize=1;strokeColor=none;fillColor=none;" parent="E57NaFPpTqs6es2otRiG-6" vertex="1">
          <mxGeometry x="5" y="30" width="190" height="180" as="geometry" />
        </mxCell>
        <mxCell id="E57NaFPpTqs6es2otRiG-10" value="comment" style="swimlane;whiteSpace=wrap;html=1;fillColor=#fff2cc;strokeColor=#d6b656;" parent="1" vertex="1">
          <mxGeometry x="600" y="200" width="200" height="200" as="geometry" />
        </mxCell>
        <mxCell id="E57NaFPpTqs6es2otRiG-11" value="&lt;font style=&quot;font-size: 14px;&quot;&gt;- id (long) (PK)&lt;br&gt;- blog (Blog) (FK)&lt;br&gt;&lt;/font&gt;&lt;div style=&quot;font-size: 14px;&quot;&gt;&lt;span style=&quot;background-color: initial;&quot;&gt;&lt;font style=&quot;font-size: 14px;&quot;&gt;- body - (varchar)&lt;/font&gt;&lt;/span&gt;&lt;/div&gt;&lt;div style=&quot;font-size: 14px;&quot;&gt;&lt;div style=&quot;border-color: var(--border-color);&quot;&gt;&lt;font style=&quot;font-size: 14px;&quot;&gt;- createdAt (Date)&lt;/font&gt;&lt;/div&gt;&lt;div style=&quot;border-color: var(--border-color);&quot;&gt;&lt;font style=&quot;font-size: 14px;&quot;&gt;- modifiedAt (Date)&lt;/font&gt;&lt;/div&gt;&lt;div style=&quot;border-color: var(--border-color);&quot;&gt;&lt;font style=&quot;font-size: 14px;&quot;&gt;- createdBy (UserId)&lt;/font&gt;&lt;/div&gt;&lt;div style=&quot;border-color: var(--border-color);&quot;&gt;&lt;font style=&quot;font-size: 14px;&quot;&gt;- modifiedBy (UserId)&lt;/font&gt;&lt;/div&gt;&lt;div style=&quot;border-color: var(--border-color);&quot;&gt;&lt;/div&gt;&lt;br style=&quot;border-color: var(--border-color);&quot;&gt;&lt;/div&gt;" style="text;html=1;align=left;verticalAlign=middle;resizable=0;points=[];autosize=1;strokeColor=none;fillColor=none;" parent="E57NaFPpTqs6es2otRiG-10" vertex="1">
          <mxGeometry x="5" y="30" width="160" height="150" as="geometry" />
        </mxCell>
        <mxCell id="E57NaFPpTqs6es2otRiG-12" value="&lt;font style=&quot;font-size: 25px;&quot;&gt;&lt;b&gt;&lt;u&gt;Database Schema&lt;/u&gt;&lt;/b&gt;&lt;/font&gt;" style="text;html=1;align=center;verticalAlign=middle;resizable=0;points=[];autosize=1;strokeColor=#d79b00;fillColor=#ffe6cc;" parent="1" vertex="1">
          <mxGeometry x="310" y="100" width="240" height="40" as="geometry" />
        </mxCell>
        <mxCell id="E57NaFPpTqs6es2otRiG-14" value="" style="endArrow=ERmany;html=1;rounded=0;fontSize=14;fontColor=#000000;exitX=1;exitY=0.5;exitDx=0;exitDy=0;endFill=0;strokeWidth=3;entryX=0;entryY=0.5;entryDx=0;entryDy=0;" parent="1" source="E57NaFPpTqs6es2otRiG-2" target="E57NaFPpTqs6es2otRiG-6" edge="1">
          <mxGeometry width="50" height="50" relative="1" as="geometry">
            <mxPoint x="340" y="350" as="sourcePoint" />
            <mxPoint x="320" y="300" as="targetPoint" />
          </mxGeometry>
        </mxCell>
        <mxCell id="E57NaFPpTqs6es2otRiG-19" value="user can&amp;nbsp;&lt;br&gt;have multiple&amp;nbsp;&lt;br&gt;blogs" style="edgeLabel;html=1;align=center;verticalAlign=middle;resizable=0;points=[];fontSize=11;fontColor=#000000;" parent="E57NaFPpTqs6es2otRiG-14" vertex="1" connectable="0">
          <mxGeometry x="-0.3111" y="-3" relative="1" as="geometry">
            <mxPoint x="9" y="-3" as="offset" />
          </mxGeometry>
        </mxCell>
        <mxCell id="E57NaFPpTqs6es2otRiG-16" value="" style="endArrow=none;html=1;rounded=0;strokeWidth=3;fontSize=14;fontColor=#000000;exitX=0;exitY=0.5;exitDx=0;exitDy=0;startArrow=ERmany;startFill=0;entryX=1;entryY=0.5;entryDx=0;entryDy=0;" parent="1" source="E57NaFPpTqs6es2otRiG-10" target="E57NaFPpTqs6es2otRiG-6" edge="1">
          <mxGeometry width="50" height="50" relative="1" as="geometry">
            <mxPoint x="375" y="470" as="sourcePoint" />
            <mxPoint x="420" y="400" as="targetPoint" />
          </mxGeometry>
        </mxCell>
        <mxCell id="E57NaFPpTqs6es2otRiG-17" value="&lt;font style=&quot;font-size: 11px;&quot;&gt;blog can &lt;br&gt;have multiple &lt;br&gt;comments&lt;/font&gt;" style="edgeLabel;html=1;align=center;verticalAlign=middle;resizable=0;points=[];fontSize=14;fontColor=#000000;" parent="E57NaFPpTqs6es2otRiG-16" vertex="1" connectable="0">
          <mxGeometry x="-0.05" y="3" relative="1" as="geometry">
            <mxPoint x="-2" y="27" as="offset" />
          </mxGeometry>
        </mxCell>
      </root>
    </mxGraphModel>
  </diagram>
</mxfile>
